<svg width="24" height="24" viewBox="0 0 24 24" fill="none" xmlns="http://www.w3.org/2000/svg">
<path d="M11.1562 20.85L8.94375 18.8625C7.52708 17.5875 6.33958 16.4709 5.38125 15.5125C4.42292 14.5542 3.64792 13.6771 3.05625 12.8813C2.46458 12.0854 2.04167 11.3375 1.7875 10.6375C1.53333 9.93752 1.40625 9.21252 1.40625 8.46252C1.40625 6.94236 1.91458 5.67694 2.93125 4.66628C3.94775 3.65544 5.21442 3.15002 6.73125 3.15002C7.58608 3.15002 8.39975 3.33336 9.17225 3.70002C9.94492 4.06669 10.6062 4.59169 11.1562 5.27502C11.7312 4.59169 12.3979 4.06669 13.1562 3.70002C13.9146 3.33336 14.7229 3.15002 15.5813 3.15002C16.8562 3.15002 18.0667 3.60627 19.2125 4.51877C20.3583 5.43127 20.9312 6.75002 20.9312 8.47502C20.9312 8.78336 20.9083 9.08961 20.8625 9.39377C20.8167 9.69794 20.7438 10.0042 20.6438 10.3125H18.6438C18.7854 9.94586 18.8854 9.60211 18.9438 9.28127C19.0021 8.96044 19.0312 8.67919 19.0312 8.43752C19.0312 7.19586 18.6313 6.31669 17.8313 5.80002C17.0313 5.28336 16.2812 5.02502 15.5813 5.02502C14.7812 5.02502 14.0625 5.25002 13.425 5.70002C12.7875 6.15002 12.2604 6.74586 11.8438 7.48752H10.4688C10.0604 6.74586 9.52708 6.15002 8.86875 5.70002C8.21042 5.25002 7.49792 5.02502 6.73125 5.02502C5.76458 5.02502 4.94792 5.35061 4.28125 6.00177C3.61458 6.65311 3.28125 7.47336 3.28125 8.46252C3.28125 9.02069 3.39792 9.58736 3.63125 10.1625C3.86458 10.7375 4.27667 11.3959 4.8675 12.1375C5.45833 12.8792 6.2625 13.7459 7.28 14.7375C8.2975 15.7292 9.58958 16.925 11.1562 18.325C11.5896 17.9417 12.0479 17.5375 12.5312 17.1125C13.0146 16.6875 13.4312 16.3084 13.7812 15.975L13.9875 16.1875C14.125 16.3292 14.2771 16.4813 14.4438 16.6438C14.6104 16.8063 14.7625 16.9584 14.9 17.1L15.1062 17.3125C14.7479 17.6459 14.3333 18.0209 13.8625 18.4375C13.3917 18.8542 12.9396 19.2542 12.5063 19.6375L11.1562 20.85ZM14.7188 14.0625V12.1875H22.5938V14.0625H14.7188Z" fill="#E6E0E9"/>
</svg>
