<svg width="24" height="24" viewBox="0 0 24 24" fill="none" xmlns="http://www.w3.org/2000/svg">
<path d="M17.9188 16.2125L15.1562 13.475L16.4938 12.1625L17.9188 13.5625L21.4438 10.0375L22.7812 11.35L17.9188 16.2125ZM10.9688 20.85L8.75625 18.8625C7.33958 17.5875 6.15208 16.4709 5.19375 15.5125C4.23542 14.5542 3.46042 13.6771 2.86875 12.8813C2.27708 12.0854 1.85417 11.3375 1.6 10.6375C1.34583 9.93752 1.21875 9.21252 1.21875 8.46252C1.21875 6.94236 1.72708 5.67694 2.74375 4.66628C3.76025 3.65544 5.02692 3.15002 6.54375 3.15002C7.39858 3.15002 8.21225 3.33336 8.98475 3.70002C9.75742 4.06669 10.4187 4.59169 10.9688 5.27502C11.5437 4.59169 12.2104 4.06669 12.9688 3.70002C13.7271 3.33336 14.5354 3.15002 15.3938 3.15002C16.7021 3.15002 17.8188 3.53127 18.7437 4.29377C19.6687 5.05627 20.2729 6.02086 20.5562 7.18752H18.5938C18.3354 6.50419 17.9167 5.97294 17.3375 5.59377C16.7583 5.21461 16.1104 5.02502 15.3938 5.02502C14.5938 5.02502 13.875 5.25002 13.2375 5.70002C12.6 6.15002 12.0729 6.74586 11.6562 7.48752H10.2812C9.87292 6.74586 9.33958 6.15002 8.68125 5.70002C8.02292 5.25002 7.31042 5.02502 6.54375 5.02502C5.57708 5.02502 4.76042 5.35061 4.09375 6.00177C3.42708 6.65311 3.09375 7.47336 3.09375 8.46252C3.09375 9.02069 3.21042 9.58736 3.44375 10.1625C3.67708 10.7375 4.08917 11.3959 4.68 12.1375C5.27083 12.8792 6.075 13.7459 7.0925 14.7375C8.11 15.7292 9.40208 16.925 10.9688 18.325C11.4021 17.9417 11.8604 17.5375 12.3438 17.1125C12.8271 16.6875 13.2437 16.3084 13.5938 15.975L13.8 16.1875C13.9375 16.3292 14.0896 16.4813 14.2563 16.6438C14.4229 16.8063 14.575 16.9584 14.7125 17.1L14.9187 17.3125C14.5604 17.6459 14.1458 18.0209 13.675 18.4375C13.2042 18.8542 12.7521 19.2542 12.3188 19.6375L10.9688 20.85Z" fill="#E6E0E9"/>
</svg>
