<svg width="24" height="24" viewBox="0 0 24 24" fill="none" xmlns="http://www.w3.org/2000/svg">
<path d="M9.6499 8V6H15.6499V8H9.6499ZM6.2374 21.4125C5.84574 21.0208 5.6499 20.55 5.6499 20C5.6499 19.45 5.84574 18.9792 6.2374 18.5875C6.62907 18.1958 7.0999 18 7.6499 18C8.1999 18 8.67074 18.1958 9.0624 18.5875C9.45407 18.9792 9.6499 19.45 9.6499 20C9.6499 20.55 9.45407 21.0208 9.0624 21.4125C8.67074 21.8042 8.1999 22 7.6499 22C7.0999 22 6.62907 21.8042 6.2374 21.4125ZM16.2374 21.4125C15.8457 21.0208 15.6499 20.55 15.6499 20C15.6499 19.45 15.8457 18.9792 16.2374 18.5875C16.6291 18.1958 17.0999 18 17.6499 18C18.1999 18 18.6707 18.1958 19.0624 18.5875C19.4541 18.9792 19.6499 19.45 19.6499 20C19.6499 20.55 19.4541 21.0208 19.0624 21.4125C18.6707 21.8042 18.1999 22 17.6499 22C17.0999 22 16.6291 21.8042 16.2374 21.4125ZM1.6499 4V2H4.9249L9.1749 11H16.1749L20.0749 4H22.3499L17.9499 11.95C17.7666 12.2833 17.5207 12.5417 17.2124 12.725C16.9041 12.9083 16.5666 13 16.1999 13H8.7499L7.6499 15H19.6499V17H7.6499C6.8999 17 6.32907 16.675 5.9374 16.025C5.54574 15.375 5.53324 14.7167 5.8999 14.05L7.2499 11.6L3.6499 4H1.6499Z" fill="#E6E0E9"/>
</svg>
