<svg width="24" height="24" viewBox="0 0 24 24" fill="none" xmlns="http://www.w3.org/2000/svg">
<path d="M11.6499 9.5V6.5H8.6499V4.5H11.6499V1.5H13.6499V4.5H16.6499V6.5H13.6499V9.5H11.6499ZM6.2374 21.9125C5.84574 21.5208 5.6499 21.05 5.6499 20.5C5.6499 19.95 5.84574 19.4792 6.2374 19.0875C6.62907 18.6958 7.0999 18.5 7.6499 18.5C8.1999 18.5 8.67074 18.6958 9.0624 19.0875C9.45407 19.4792 9.6499 19.95 9.6499 20.5C9.6499 21.05 9.45407 21.5208 9.0624 21.9125C8.67074 22.3042 8.1999 22.5 7.6499 22.5C7.0999 22.5 6.62907 22.3042 6.2374 21.9125ZM16.2374 21.9125C15.8457 21.5208 15.6499 21.05 15.6499 20.5C15.6499 19.95 15.8457 19.4792 16.2374 19.0875C16.6291 18.6958 17.0999 18.5 17.6499 18.5C18.1999 18.5 18.6707 18.6958 19.0624 19.0875C19.4541 19.4792 19.6499 19.95 19.6499 20.5C19.6499 21.05 19.4541 21.5208 19.0624 21.9125C18.6707 22.3042 18.1999 22.5 17.6499 22.5C17.0999 22.5 16.6291 22.3042 16.2374 21.9125ZM1.6499 4.5V2.5H4.9249L9.1749 11.5H16.1749L20.0749 4.5H22.3499L17.9499 12.45C17.7666 12.7833 17.5207 13.0417 17.2124 13.225C16.9041 13.4083 16.5666 13.5 16.1999 13.5H8.7499L7.6499 15.5H19.6499V17.5H7.6499C6.8999 17.5 6.32907 17.175 5.9374 16.525C5.54574 15.875 5.53324 15.2167 5.8999 14.55L7.2499 12.1L3.6499 4.5H1.6499Z" fill="#E6E0E9"/>
</svg>
