<svg width="24" height="24" viewBox="0 0 24 24" fill="none" xmlns="http://www.w3.org/2000/svg">
<path d="M6.59678 21.4125C6.20511 21.0208 6.00928 20.55 6.00928 20C6.00928 19.45 6.20511 18.9792 6.59678 18.5875C6.98844 18.1958 7.45928 18 8.00928 18C8.55928 18 9.03011 18.1958 9.42178 18.5875C9.81344 18.9792 10.0093 19.45 10.0093 20C10.0093 20.55 9.81344 21.0208 9.42178 21.4125C9.03011 21.8042 8.55928 22 8.00928 22C7.45928 22 6.98844 21.8042 6.59678 21.4125ZM16.5968 21.4125C16.2051 21.0208 16.0093 20.55 16.0093 20C16.0093 19.45 16.2051 18.9792 16.5968 18.5875C16.9884 18.1958 17.4593 18 18.0093 18C18.5593 18 19.0301 18.1958 19.4218 18.5875C19.8134 18.9792 20.0093 19.45 20.0093 20C20.0093 20.55 19.8134 21.0208 19.4218 21.4125C19.0301 21.8042 18.5593 22 18.0093 22C17.4593 22 16.9884 21.8042 16.5968 21.4125ZM7.15928 6L9.55928 11H16.5593L19.3093 6H7.15928ZM6.20928 4H20.9593C21.3426 4 21.6343 4.17083 21.8343 4.5125C22.0343 4.85417 22.0426 5.2 21.8593 5.55L18.3093 11.95C18.1259 12.2833 17.8801 12.5417 17.5718 12.725C17.2634 12.9083 16.9259 13 16.5593 13H9.10928L8.00928 15H20.0093V17H8.00928C7.25928 17 6.69261 16.6708 6.30928 16.0125C5.92594 15.3542 5.90928 14.7 6.25928 14.05L7.60928 11.6L4.00928 4H2.00928V2H5.25928L6.20928 4Z" fill="#E6E0E9"/>
</svg>
