<svg width="24" height="24" viewBox="0 0 24 24" fill="none" xmlns="http://www.w3.org/2000/svg">
<path d="M12 20.9375L10.65 19.725C8.9955 18.2322 7.62775 16.9443 6.54675 15.8615C5.46558 14.7788 4.606 13.8092 3.968 12.9525C3.32983 12.0958 2.884 11.3085 2.6305 10.5905C2.37683 9.8725 2.25 9.13817 2.25 8.3875C2.25 6.87067 2.75833 5.604 3.775 4.5875C4.7915 3.57083 6.05817 3.0625 7.575 3.0625C8.42983 3.0625 9.2435 3.24583 10.016 3.6125C10.7887 3.97917 11.45 4.50417 12 5.1875C12.575 4.50417 13.2417 3.97917 14 3.6125C14.7583 3.24583 15.5667 3.0625 16.425 3.0625C17.9418 3.0625 19.2085 3.57083 20.225 4.5875C21.2417 5.604 21.75 6.87067 21.75 8.3875C21.75 9.13817 21.6232 9.8725 21.3695 10.5905C21.116 11.3085 20.6702 12.0958 20.032 12.9525C19.394 13.8092 18.5344 14.7788 17.4532 15.8615C16.3722 16.9443 15.0045 18.2322 13.35 19.725L12 20.9375ZM12 18.4125C13.5667 16.9958 14.8583 15.7833 15.875 14.775C16.8917 13.7667 17.6958 12.8875 18.2875 12.1375C18.8792 11.3875 19.2917 10.7193 19.525 10.133C19.7583 9.54667 19.875 8.9645 19.875 8.3865C19.875 7.3955 19.547 6.57292 18.891 5.91875C18.235 5.26458 17.4151 4.9375 16.4313 4.9375C15.6604 4.9375 14.9438 5.15833 14.2812 5.6C13.6187 6.04167 13.15 6.61667 12.875 7.325H11.125C10.85 6.61667 10.3813 6.04167 9.71875 5.6C9.05625 5.15833 8.33958 4.9375 7.56875 4.9375C6.58492 4.9375 5.765 5.26458 5.109 5.91875C4.453 6.57292 4.125 7.3955 4.125 8.3865C4.125 8.9645 4.24167 9.54667 4.475 10.133C4.70833 10.7193 5.12083 11.3875 5.7125 12.1375C6.30417 12.8875 7.10833 13.7667 8.125 14.775C9.14167 15.7833 10.4333 16.9958 12 18.4125Z" fill="#E6E0E9"/>
</svg>
